<?xml version="1.0" encoding="UTF-8"?>
<svg width="64px" height="64px" fill="rgb(237, 103, 137)" version="1.1" viewBox="0 0 700 700" xmlns="http://www.w3.org/2000/svg" xmlns:xlink="http://www.w3.org/1999/xlink">

 <g>
  <path d="m383.04 469.67c-4.7852-13.633-17.781-23.422-33.039-23.422-19.32 0-35 15.68-35 35s15.68 35 35 35c17.297 0 31.684-12.574 34.5-29.078 99.516-16.484 175.5-103.02 175.5-207.17 0-22.277-3.4844-43.758-9.9219-63.91-1.4688-4.6016-6.3945-7.1484-11-5.6797-4.6016 1.4688-7.1406 6.4062-5.6719 11 5.9062 18.48 9.0898 38.168 9.0898 58.59 0 94.988-68.941 174-159.46 189.67zm-242.9-181.99c3.2812 91.176 64.82 167.61 148.47 193.18 4.6211 1.418 9.5117-1.1914 10.93-5.8086 1.4102-4.6211-1.1992-9.5117-5.8086-10.922-76.512-23.391-132.83-93.195-136.08-176.53 15.016-3.9375 26.102-17.613 26.102-33.855 0-19.32-15.68-35-35-35-19.32 0-35 15.68-35 35 0 16.344 11.227 30.09 26.391 33.934zm244.26 90.117c6.0898 1.8359 12.547 2.8281 19.242 2.8281 36.777 0 66.633-29.863 66.633-66.641 0-49.246-29.863-94.09-60.164-127.38-2.6328-2.8945-6.8789-3.6914-10.379-1.9414-3.5078 1.7578-5.4258 5.6172-4.6914 9.4688 3.9375 20.668-3.0273 35.07-12.855 47.426-15.305-32.141-37.379-61.188-59.578-85.574-2.6328-2.8945-6.8789-3.6914-10.379-1.9414-3.5078 1.7578-5.4258 5.6172-4.6914 9.4688 7.1133 37.32-11.219 59.98-30.773 80.746-10.953 11.621-22.375 22.688-31.078 34.867-9.5547 13.344-15.953 27.984-15.953 45.719 0 47.688 38.711 86.406 86.406 86.406 27.738 0 52.438-13.098 68.258-33.453zm-66.754-95.113-20.789 77.594c-1.25 4.6641 1.5234 9.4688 6.1875 10.719 4.6641 1.25 9.4688-1.5234 10.719-6.1875l20.789-77.594c1.25-4.6641-1.5234-9.4688-6.1875-10.719-4.6641-1.25-9.4688 1.5234-10.719 6.1875zm76.422 79.504c3.0898 0.61328 6.293 0.9375 9.5742 0.9375 27.117 0 49.133-22.016 49.133-49.141 0-36.27-18.324-69.66-39.926-97.125-2.8164 17.219-12.117 30.539-22.969 42.656 7.9023 20.816 12.672 42.719 12.672 65.328 0 13.371-3.0469 26.039-8.4805 37.344zm-117.65-2.6523c7.6836 0 13.922-6.2305 13.922-13.914s-6.2383-13.914-13.922-13.914c-7.6719 0-13.914 6.2305-13.914 13.914s6.2383 13.914 13.914 13.914zm77.961-39.375c7.6836 0 13.914-6.2305 13.914-13.914s-6.2305-13.914-13.914-13.914-13.914 6.2305-13.914 13.914 6.2305 13.914 13.914 13.914zm133.52-174.42c-4.1719 5.7656-6.6406 12.855-6.6406 20.512 0 19.32 15.68 35 35 35s35-15.68 35-35-15.68-35-35-35c-5.3008 0-10.332 1.1797-14.832 3.2969-38.219-39.777-91.953-64.547-151.42-64.547-86.746 0-161.28 52.711-193.29 127.82-1.8906 4.4453 0.18359 9.5898 4.6211 11.48 4.4453 1.8906 9.5898-0.17578 11.48-4.6211 29.348-68.855 97.668-117.18 177.19-117.18 54.047 0 102.92 22.32 137.89 58.238z" fill-rule="evenodd"/>
  <use x="70" y="691.25" xlink:href="#l"/>
  <use x="102.109375" y="691.25" xlink:href="#i"/>
  <use x="123.683594" y="691.25" xlink:href="#a"/>
  <use x="153.355469" y="691.25" xlink:href="#h"/>
  <use x="182.878906" y="691.25" xlink:href="#g"/>
  <use x="203.792969" y="691.25" xlink:href="#a"/>
  <use x="233.464844" y="691.25" xlink:href="#c"/>
  <use x="280.011719" y="691.25" xlink:href="#f"/>
  <use x="311.328125" y="691.25" xlink:href="#e"/>
  <use x="355.078125" y="691.25" xlink:href="#b"/>
  <use x="370.078125" y="691.25" xlink:href="#k"/>
  <use x="396.011719" y="691.25" xlink:href="#a"/>
  <use x="425.683594" y="691.25" xlink:href="#d"/>
  <use x="440.679688" y="691.25" xlink:href="#d"/>
  <use x="455.675781" y="691.25" xlink:href="#j"/>
  <use x="485.730469" y="691.25" xlink:href="#b"/>
  <use x="500.726562" y="691.25" xlink:href="#c"/>
 </g>
</svg>
