<?xml version="1.0" encoding="utf-8"?>
<!-- Generator: Adobe Illustrator 16.0.0, SVG Export Plug-In . SVG Version: 6.00 Build 0)  -->
<!DOCTYPE svg PUBLIC "-//W3C//DTD SVG 1.1//EN" "http://www.w3.org/Graphics/SVG/1.1/DTD/svg11.dtd">
<svg version="1.1" id="Layer_1" xmlns="http://www.w3.org/2000/svg" xmlns:xlink="http://www.w3.org/1999/xlink" x="0px" y="0px"
	 width="64px" height="64px" fill="rgb(237, 103, 137)" viewBox="8 5.25 43 42.25" enable-background="new 8 5.25 43 42.25" xml:space="preserve">
<g>
	<path d="M31.913,41.661c-6.351,0-11.518-5.167-11.518-11.519c0-0.441,0.031-0.896,0.098-1.427c0.336-5.11,3.9-11.258,10.594-18.275
		l0.861-0.902l0.885,0.876c0.37,0.366,9.056,9.042,10.362,17.397c0.156,0.768,0.236,1.551,0.236,2.33
		C43.432,36.494,38.266,41.661,31.913,41.661L31.913,41.661z M31.977,13.066c-5.732,6.205-8.775,11.532-9.044,15.842l-0.008,0.078
		c-0.057,0.443-0.083,0.811-0.083,1.156c0,5.002,4.07,9.072,9.072,9.072c5.003,0,9.071-4.07,9.071-9.072
		c0-0.621-0.063-1.248-0.191-1.861l-0.011-0.064C39.84,22.112,34.172,15.452,31.977,13.066L31.977,13.066z"/>
	<path d="M19.172,29.531c0-0.441,0.031-0.896,0.097-1.428c0.262-3.972,2.483-8.575,6.599-13.722
		c-1.889-2.524-3.616-4.234-3.616-4.234c-6.06,6.353-8.29,11.068-8.508,14.55c-0.046,0.356-0.077,0.718-0.077,1.087
		c0,3.986,2.736,7.324,6.43,8.264C19.503,32.661,19.171,31.135,19.172,29.531L19.172,29.531z"/>
	<path d="M44.828,29.531c0-0.441-0.031-0.896-0.098-1.428c-0.263-3.972-2.482-8.575-6.601-13.722
		c1.89-2.524,3.616-4.234,3.616-4.234c6.063,6.353,8.29,11.068,8.509,14.55c0.045,0.356,0.076,0.718,0.076,1.087
		c0,3.986-2.735,7.324-6.431,8.264C44.497,32.661,44.828,31.134,44.828,29.531L44.828,29.531z"/>
	<path d="M33.545,37.533c-2.023,0-3.67-1.646-3.67-3.67s1.646-3.67,3.67-3.67s3.67,1.646,3.67,3.67S35.568,37.533,33.545,37.533z
		 M33.545,31.417c-1.35,0-2.445,1.097-2.445,2.444c0,1.349,1.098,2.447,2.445,2.447s2.445-1.099,2.445-2.447
		C35.99,32.514,34.893,31.417,33.545,31.417z"/>
	<path d="M38.323,31.111c-0.78,0-1.415-0.635-1.415-1.416c0-0.778,0.635-1.413,1.415-1.413c0.778,0,1.413,0.635,1.413,1.413
		C39.736,30.477,39.102,31.111,38.323,31.111z M38.323,28.895c-0.442,0-0.804,0.36-0.804,0.803c0,0.443,0.36,0.803,0.804,0.803
		c0.442,0,0.802-0.359,0.802-0.803S38.766,28.895,38.323,28.895z"/>
</g>
</svg>
