<?xml version="1.0" encoding="UTF-8"?>
<svg width="64px" height="64px" fill="rgb(237, 103, 137)" version="1.1" viewBox="0 0 700 700" xmlns="http://www.w3.org/2000/svg" xmlns:xlink="http://www.w3.org/1999/xlink">

 <g>
  <path d="m265.13 177.38c0.12891 0.37891 0.30469 0.75 0.51172 1.0977 1.1914 1.9883 3.4141 3.1719 5.9414 3.1719 3.543 0 11.836 0 53.125-49.535 16.152-19.395 23.145-38.535 20.762-56.902-3.1758-24.523-22.023-38.188-22.824-38.758-2.0156-1.4258-4.6992-1.4375-6.7383-0.054687-2.0391 1.3906-2.9961 3.9219-2.3945 6.3086 0.30078 1.2188 7.0625 30.25-24.156 61.469-36.453 36.469-24.746 71.727-24.227 73.203zm32.562-64.859c21.137-21.133 27.008-41.871 28.16-55.77 3.5195 5.0352 6.8555 11.762 7.9219 19.977 1.9375 14.98-4.1602 31.07-18.133 47.836-23.445 28.129-35.156 38.836-40.574 42.895-1.1836-10.23-0.23047-32.082 22.625-54.938z"/>
  <path d="m316.92 531.96h0.71484c2.4336 0 4.6172-1.4961 5.5-3.7734 0.87109-2.2695 0.26563-4.8516-1.5391-6.4883-3.125-2.8398-71.715-66.688-20.414-146.95 0.73828 7.4258 2.8359 15.492 7.8398 21.473 4.957 5.9297 12.133 9.0664 20.863 9.0664h0.007813c3.9336-0.082031 12.062-2.3828 17.586-10.48 9.5391-13.977 7.8477-38.812-5.0352-73.824-8.9766-24.41-9.2773-43.504-0.89062-56.762 5.6992-9.0078 14.578-13.77 21.582-16.25-7.3047 21.848-13.281 72.77 49.398 140.45 21.746 23.484 30.723 46.438 26.656 68.23-7.4219 39.777-55.84 63.883-56.332 64.117-2.4648 1.2031-3.7773 3.9492-3.1523 6.625 0.61328 2.6719 2.9961 4.5625 5.7422 4.5625h2.8477c0.53125 0 1.0547-0.070313 1.5664-0.21094 55.766-15.363 93.625-45.598 112.54-89.871 45.727-107.02-34.113-257.35-37.539-263.7-0.89062-1.6562-2.5234-2.7891-4.3867-3.043-1.8438-0.25391-3.7383 0.39062-5.0391 1.7461-8.6016 8.918-15.062 18.051-19.918 26.793-0.65625-135.47-53.07-153.21-55.477-153.95-2.6836-0.82422-5.5586 0.36719-6.8984 2.8242-1.3438 2.457-0.75391 5.5273 1.3906 7.3398 0.14062 0.125 14.594 12.508 13.48 30.961-1.0508 17.414-15.008 35.027-41.492 52.355-65.723 43.02-63.25 125.82-59.879 156.05-34.055-24.055-40.184-115.13-39.484-151 0.054688-2.6953-1.7344-5.082-4.3281-5.793-2.5859-0.72656-5.3516 0.42578-6.6914 2.7578-70.453 123.55-47.254 202.07-23.738 240.85-12.961-13.742-16.922-28.59-17.164-29.527-0.73047-2.9219-3.5195-4.8398-6.5312-4.4102-2.9844 0.41797-5.1758 3.0195-5.0703 6.0312 5.4609 167.38 131.8 173.75 133.28 173.8zm-78.988-115.95c2.7109 0.91797 5.7109-0.24609 7.0781-2.7773 1.3672-2.5273 0.71484-5.6836-1.5547-7.457-3.8594-3.0234-90.266-73.348-7.7227-235.04 1.7812 42.461 11.004 130.3 56.605 144.33 2.0039 0.61719 4.1602 0.125 5.6992-1.2734 1.543-1.4023 2.2266-3.5195 1.8086-5.5547-0.21875-1.0625-21.039-106.64 53.129-155.18 29.855-19.543 45.609-40.297 46.809-61.695 0.14844-2.5859 0.078125-5.0742-0.17578-7.4609 13.816 22.867 27.883 67.672 23.219 154.24-0.16016 3.0781 2.0742 5.7656 5.1289 6.1602 3.0703 0.41406 5.9062-1.625 6.5312-4.6523 2.5938-12.531 8.8438-30.539 23.793-48.348 15.492 31.789 71.18 157.18 33.27 245.92-13.176 30.828-36.531 54.336-69.645 70.184 12.738-12.008 25.062-28.336 28.855-48.562 4.8086-25.672-5.1445-52.066-29.59-78.457-76.195-82.277-44.289-135.51-42.902-137.71 1.207-1.8867 1.2422-4.3047 0.089844-6.2266-1.1484-1.9219-3.2656-3.0312-5.543-2.8281-1.1094 0.09375-27.387 2.5469-41.152 24.164-10.527 16.527-10.621 39.152-0.28125 67.254 14.918 40.555 10.504 56.777 6.543 62.844-3.4297 5.2461-8.1875 5.5938-8.1523 5.6055-5.1445 0-8.9648-1.5781-11.688-4.8203-6.957-8.3008-5.6992-25.773-4.6289-31.801 0.47266-2.6484-0.90234-5.2773-3.3438-6.3906-2.4453-1.1133-5.3242-0.44922-7.0273 1.625-60.203 73.836-22.062 139.1-0.83203 165.66-28.914-6.8242-91.004-32.816-104.42-130.74 8.2656 10.941 20.977 22.441 40.098 28.977z"/>
  <use x="70" y="648.421875" xlink:href="#v"/>
  <use x="91.628906" y="648.421875" xlink:href="#b"/>
  <use x="106.164062" y="648.421875" xlink:href="#a"/>
  <use x="126.15625" y="648.421875" xlink:href="#g"/>
  <use x="146.042969" y="648.421875" xlink:href="#c"/>
  <use x="160.132812" y="648.421875" xlink:href="#a"/>
  <use x="180.125" y="648.421875" xlink:href="#f"/>
  <use x="211.480469" y="648.421875" xlink:href="#l"/>
  <use x="232.582031" y="648.421875" xlink:href="#k"/>
  <use x="262.054688" y="648.421875" xlink:href="#j"/>
  <use x="286.246094" y="648.421875" xlink:href="#e"/>
  <use x="307.230469" y="648.421875" xlink:href="#u"/>
  <use x="317.332031" y="648.421875" xlink:href="#t"/>
  <use x="327.433594" y="648.421875" xlink:href="#i"/>
  <use x="348.417969" y="648.421875" xlink:href="#a"/>
  <use x="368.40625" y="648.421875" xlink:href="#b"/>
  <use x="382.941406" y="648.421875" xlink:href="#h"/>
  <use x="413.652344" y="648.421875" xlink:href="#a"/>
  <use x="443.902344" y="648.421875" xlink:href="#s"/>
  <use x="464.039062" y="648.421875" xlink:href="#e"/>
  <use x="485.019531" y="648.421875" xlink:href="#b"/>
  <use x="499.554688" y="648.421875" xlink:href="#c"/>
  <use x="513.644531" y="648.421875" xlink:href="#g"/>
  <use x="533.535156" y="648.421875" xlink:href="#f"/>
  <use x="554.632812" y="648.421875" xlink:href="#d"/>
  <use x="70" y="677.894531" xlink:href="#r"/>
  <use x="82.824219" y="677.894531" xlink:href="#b"/>
  <use x="97.359375" y="677.894531" xlink:href="#d"/>
  <use x="117.605469" y="677.894531" xlink:href="#h"/>
  <use x="158.578125" y="677.894531" xlink:href="#c"/>
  <use x="172.667969" y="677.894531" xlink:href="#i"/>
  <use x="193.652344" y="677.894531" xlink:href="#a"/>
  <use x="223.902344" y="677.894531" xlink:href="#q"/>
  <use x="248.570312" y="677.894531" xlink:href="#d"/>
  <use x="268.816406" y="677.894531" xlink:href="#e"/>
  <use x="289.800781" y="677.894531" xlink:href="#p"/>
  <use x="321.042969" y="677.894531" xlink:href="#o"/>
  <use x="342.644531" y="677.894531" xlink:href="#b"/>
  <use x="357.179688" y="677.894531" xlink:href="#d"/>
  <use x="377.429688" y="677.894531" xlink:href="#n"/>
  <use x="387.53125" y="677.894531" xlink:href="#a"/>
  <use x="407.523437" y="677.894531" xlink:href="#m"/>
  <use x="424.992188" y="677.894531" xlink:href="#c"/>
 </g>
</svg>
