<?xml version="1.0" encoding="UTF-8"?>
<svg width="64px" height="64px" fill="rgb(237, 103, 137)" version="1.1" viewBox="0 0 700 700" xmlns="http://www.w3.org/2000/svg" xmlns:xlink="http://www.w3.org/1999/xlink">

 <g>
  <path d="m443.71 0c-18.105-0.023438-35.477 7.1484-48.293 19.938-12.816 12.789-20.027 30.148-20.043 48.254-0.015625 18.105 7.1641 35.477 19.961 48.289 12.793 12.809 30.152 20.012 48.262 20.02 18.105 0.007812 35.473-7.1797 48.277-19.98s20-30.164 20-48.27c0-18.086-7.1797-35.434-19.961-48.23-12.777-12.797-30.117-19.996-48.203-20.02zm24.965 77h-16.23v16.273c0 4.8359-3.918 8.75-8.75 8.75-4.832 0-8.75-3.9141-8.75-8.75v-16.273h-16.188c-4.832 0-8.75-3.918-8.75-8.75s3.918-8.75 8.75-8.75h16.223v-16.258c0-4.832 3.918-8.75 8.75-8.75s8.75 3.918 8.75 8.75v16.258h16.23c4.832 0 8.75 3.918 8.75 8.75s-3.918 8.75-8.75 8.75z"/>
  <path d="m354.89 341.7v-289.89c0-18.465-9.8516-35.531-25.844-44.762-15.992-9.2344-35.691-9.2344-51.684 0-15.992 9.2305-25.844 26.297-25.844 44.762v16.625h-36.934c-4.832 0-8.75 3.918-8.75 8.75s3.918 8.75 8.75 8.75h36.934v32.27h-22.84c-4.832 0-8.75 3.918-8.75 8.75 0 4.832 3.918 8.75 8.75 8.75h22.836v32.262h-36.93c-4.832 0-8.75 3.918-8.75 8.75s3.918 8.75 8.75 8.75h36.934v32.27h-22.84c-4.832 0-8.75 3.918-8.75 8.75 0 4.832 3.918 8.75 8.75 8.75h22.836v32.262h-36.93c-4.832 0-8.75 3.918-8.75 8.75s3.918 8.75 8.75 8.75h36.934v56.742c-31.078 15.625-53.414 44.473-60.77 78.469-7.3516 34 1.0703 69.5 22.914 96.57 21.84 27.07 54.758 42.805 89.539 42.805 34.785 0 67.703-15.734 89.543-42.805 21.844-27.07 30.266-62.57 22.914-96.57-7.3555-33.996-29.691-62.844-60.77-78.469zm-26.562 165.32c8.4531-13.938 5.7656-34.844 1.5469-51.031-0.77344-3.1406-3.2266-5.5898-6.3711-6.3633-3.1406-0.76953-6.4492 0.26562-8.5898 2.6875-18.961 21.176-52.414 21.516-27.309 59.07v0.003907c-16.57-6.0625-28.82-20.27-32.375-37.547-3.5508-17.078 2.1367-33.117 29.172-45.91 14-6.625 22.016-24.551 26.383-39.105h-0.003906c1.2969-4.5664 5.1133-7.9727 9.793-8.7461 4.6836-0.76953 9.3906 1.2305 12.082 5.1406 9.7461 14.305 19.906 39.059 19.418 79.871-0.14453 17.141-9.1211 32.992-23.746 41.93z"/>
  <use x="70" y="691.25" xlink:href="#o"/>
  <use x="102.109375" y="691.25" xlink:href="#d"/>
  <use x="123.683594" y="691.25" xlink:href="#b"/>
  <use x="153.355469" y="691.25" xlink:href="#a"/>
  <use x="182.878906" y="691.25" xlink:href="#h"/>
  <use x="203.792969" y="691.25" xlink:href="#b"/>
  <use x="233.464844" y="691.25" xlink:href="#c"/>
  <use x="280.011719" y="691.25" xlink:href="#g"/>
  <use x="311.328125" y="691.25" xlink:href="#f"/>
  <use x="355.078125" y="691.25" xlink:href="#e"/>
  <use x="386.804688" y="691.25" xlink:href="#n"/>
  <use x="417.949219" y="691.25" xlink:href="#m"/>
  <use x="432.945312" y="691.25" xlink:href="#l"/>
  <use x="451.980469" y="691.25" xlink:href="#a"/>
  <use x="496.734375" y="691.25" xlink:href="#k"/>
  <use x="540.269531" y="691.25" xlink:href="#a"/>
  <use x="569.792969" y="691.25" xlink:href="#j"/>
  <use x="600.9375" y="691.25" xlink:href="#b"/>
  <use x="630.609375" y="691.25" xlink:href="#i"/>
  <use x="661.757812" y="691.25" xlink:href="#c"/>
  <use x="693.074219" y="691.25" xlink:href="#d"/>
 </g>
</svg>
